<?xml version="1.0" encoding="UTF-8"?>
<svg version="1.1" xmlns="http://www.w3.org/2000/svg" width="148" height="148">
<path d="M0 0 C48.84 0 97.68 0 148 0 C148 48.84 148 97.68 148 148 C99.16 148 50.32 148 0 148 C0 99.16 0 50.32 0 0 Z " fill="#FEFEFE" transform="translate(0,0)"/>
<path d="M0 0 C7.42797135 5.60179144 13.72100266 12.45779514 20.14941406 19.14941406 C21.72633368 20.78654679 23.31532074 22.41116329 24.90625 24.03466797 C25.38547913 24.54081635 25.86470825 25.04696472 26.35845947 25.56845093 C27.86938242 27.1475132 27.86938242 27.1475132 30.265625 29.07373047 C31.585625 29.07373047 32.905625 29.07373047 34.265625 29.07373047 C34.265625 28.41373047 34.265625 27.75373047 34.265625 27.07373047 C34.925625 27.07373047 35.585625 27.07373047 36.265625 27.07373047 C36.265625 26.41373047 36.265625 25.75373047 36.265625 25.07373047 C36.925625 25.07373047 37.585625 25.07373047 38.265625 25.07373047 C38.265625 24.41373047 38.265625 23.75373047 38.265625 23.07373047 C38.925625 23.07373047 39.585625 23.07373047 40.265625 23.07373047 C40.265625 22.41373047 40.265625 21.75373047 40.265625 21.07373047 C40.925625 21.07373047 41.585625 21.07373047 42.265625 21.07373047 C42.265625 20.41373047 42.265625 19.75373047 42.265625 19.07373047 C42.925625 19.07373047 43.585625 19.07373047 44.265625 19.07373047 C44.265625 18.41373047 44.265625 17.75373047 44.265625 17.07373047 C44.925625 17.07373047 45.585625 17.07373047 46.265625 17.07373047 C46.265625 16.41373047 46.265625 15.75373047 46.265625 15.07373047 C46.925625 15.07373047 47.585625 15.07373047 48.265625 15.07373047 C48.265625 14.41373047 48.265625 13.75373047 48.265625 13.07373047 C48.925625 13.07373047 49.585625 13.07373047 50.265625 13.07373047 C50.52730469 12.48720703 50.78898437 11.90068359 51.05859375 11.29638672 C53.79782562 6.25229955 58.96934718 1.2697481 64.265625 -0.92626953 C69.15567176 -1.46960806 71.26066371 -1.44736057 75.640625 0.82373047 C79.0648852 3.75881064 80.12639811 5.55480362 80.53977966 10.06468201 C80.55041946 11.23096634 80.56105927 12.39725067 80.57202148 13.59887695 C80.580345 14.24491882 80.58866852 14.89096069 80.59724426 15.55657959 C80.62128295 17.68605625 80.63010785 19.81522639 80.63671875 21.94482422 C80.64568856 23.4292866 80.65481047 24.91374807 80.66407776 26.39820862 C80.68055275 29.50760086 80.68826534 32.6168856 80.69116211 35.72631836 C80.69654982 39.70570427 80.7342505 43.68407693 80.77990627 47.66317654 C80.80968258 50.72845634 80.81688574 53.79349204 80.81788826 56.85890388 C80.82208817 58.32572136 80.83451357 59.79253971 80.85540581 61.2592144 C80.88234092 63.31329349 80.87749267 65.36502249 80.86499023 67.41918945 C80.87006088 68.58626938 80.87513153 69.7533493 80.88035583 70.95579529 C80.08112061 75.00954283 78.42616658 76.50414175 75.265625 79.07373047 C72.95385742 79.64135742 72.95385742 79.64135742 70.62109375 79.56201172 C69.48256958 79.54328003 69.48256958 79.54328003 68.32104492 79.52416992 C66.90142456 79.45588989 66.90142456 79.45588989 65.453125 79.38623047 C62.42125 79.28310547 59.389375 79.17998047 56.265625 79.07373047 C55.935625 66.86373047 55.605625 54.65373047 55.265625 42.07373047 C50.54860013 46.86951876 50.54860013 46.86951876 45.84301758 51.67651367 C37.90114277 59.68488358 37.90114277 59.68488358 31.453125 60.63623047 C21.88965464 60.17233079 14.46757297 49.44254699 8.265625 43.07373047 C5.18091027 39.9677051 2.06617083 36.89333444 -1.0546875 33.82373047 C-2.65637012 32.24051865 -4.25792953 30.65718217 -5.859375 29.07373047 C-6.67019531 28.27966797 -7.48101562 27.48560547 -8.31640625 26.66748047 C-9.09628906 25.89404297 -9.87617187 25.12060547 -10.6796875 24.32373047 C-11.73953857 23.27958984 -11.73953857 23.27958984 -12.82080078 22.21435547 C-16.54174672 18.05190918 -18.31696984 14.79123862 -18.08984375 9.06982422 C-17.36913981 5.02279442 -15.15858771 2.19275474 -11.984375 -0.30126953 C-7.80913111 -1.4610595 -3.91109061 -2.08877784 0 0 Z " fill="#EB4334" transform="translate(42.734375,34.92626953125)"/>
<path d="M0 0 C0.56170898 0.75297363 1.12341797 1.50594727 1.70214844 2.28173828 C3.91868987 4.90381354 5.95641028 6.55454965 8.765625 8.4921875 C16.25090851 14.26113476 23.46741898 19.99112984 24.9296875 29.75292969 C26.00505425 41.12383783 25.10296362 52.66153397 24 64 C20.75047252 64.14546783 17.50178287 64.2341168 14.25 64.3125 C13.32960938 64.35439453 12.40921875 64.39628906 11.4609375 64.43945312 C10.12675781 64.46362305 10.12675781 64.46362305 8.765625 64.48828125 C7.54020996 64.52755737 7.54020996 64.52755737 6.29003906 64.56762695 C2.87394758 63.72088786 1.91438683 61.88236447 0 59 C-0.48101807 56.15885925 -0.48101807 56.15885925 -0.45410156 53.01635742 C-0.45379944 51.83551071 -0.45349731 50.654664 -0.45318604 49.43803406 C-0.43254089 48.17328751 -0.41189575 46.90854095 -0.390625 45.60546875 C-0.38496521 44.30297684 -0.37930542 43.00048492 -0.37347412 41.65852356 C-0.35825289 38.20753899 -0.31900316 34.75723538 -0.2746582 31.30651855 C-0.23362858 27.78061127 -0.21544682 24.25459319 -0.1953125 20.72851562 C-0.15250415 13.81873193 -0.08429651 6.90939872 0 0 Z " fill="#4084F4" transform="translate(25,50)"/>
<path d="M0 0 C0.33 0 0.66 0 1 0 C1.11599547 7.60609388 1.20476637 15.21209574 1.25906086 22.81887341 C1.28512388 26.35132845 1.32045866 29.88317713 1.37719727 33.4152832 C1.44206064 37.47873661 1.46620732 41.54155598 1.48828125 45.60546875 C1.51408768 46.8702153 1.5398941 48.13496185 1.56648254 49.43803406 C1.5692256 58.01499978 1.5692256 58.01499978 -0.91723633 62.31762695 C-5.29072873 64.70439627 -8.91884885 64.54970158 -13.8125 64.3125 C-14.69615234 64.28994141 -15.57980469 64.26738281 -16.49023438 64.24414062 C-18.6608891 64.18547428 -20.8306669 64.09579979 -23 64 C-26.60552573 28.87187792 -26.60552573 28.87187792 -19.73155212 19.45869446 C-15.23631456 14.13410832 -9.84464571 9.75955235 -4.15478516 5.76293945 C-1.95067378 3.95964371 -1.03494 2.62052577 0 0 Z " fill="#01AD43" transform="translate(122,50)"/>
<path d="M0 0 C3.10352458 1.60923497 5.21701424 3.00347267 7.375 5.75 C8.71041686 10.5575007 8.92944042 14.26914126 6.58203125 18.640625 C3.09660483 23.55712286 -1.4117208 27.65953246 -5.6875 31.875 C-6.56728516 32.75414062 -7.44707031 33.63328125 -8.35351562 34.5390625 C-14.85959943 41 -14.85959943 41 -16 41 C-16.31718601 36.26930996 -16.58617774 31.53916621 -16.81176758 26.80322266 C-16.89507071 25.19442086 -16.99126874 23.586231 -17.10083008 21.97900391 C-17.99932545 8.60508657 -17.99932545 8.60508657 -15.51220703 4.61035156 C-13.72767895 3.06224916 -12.13757014 1.98833564 -10 1 C-6.78501861 -0.6074907 -3.48701742 -0.47314549 0 0 Z " fill="#FCBA04" transform="translate(115,34)"/>
<path d="M0 0 C2.66216477 1.516669 4.10439921 2.73172596 5.87011719 5.26708984 C7.03394745 11.22497588 6.9455076 17.09170969 6.87011719 23.14208984 C6.878214 24.80096564 6.88989578 26.45982806 6.90527344 28.11865234 C6.93503792 32.16915425 6.91579039 36.21676455 6.87011719 40.26708984 C3.48345065 38.79878821 1.25347 36.90783475 -1.35253906 34.31005859 C-2.53106445 33.13540039 -2.53106445 33.13540039 -3.73339844 31.93701172 C-4.54486328 31.1178125 -5.35632813 30.29861328 -6.19238281 29.45458984 C-7.00771484 28.64699219 -7.82304688 27.83939453 -8.66308594 27.00732422 C-9.44748047 26.22035156 -10.231875 25.43337891 -11.04003906 24.62255859 C-12.10943726 23.54977661 -12.10943726 23.54977661 -13.20043945 22.45532227 C-16.90516712 18.25369326 -18.71351785 15.01080092 -18.48535156 9.26318359 C-17.76464763 5.2161538 -15.55409552 2.38611412 -12.37988281 -0.10791016 C-7.93230836 -1.3433475 -4.33289525 -1.49098482 0 0 Z " fill="#C42320" transform="translate(43.1298828125,34.73291015625)"/>
<path d="M0 0 C0.33 0 0.66 0 1 0 C1 5.28 1 10.56 1 16 C-4.28 16 -9.56 16 -15 16 C-13.68 15.34 -12.36 14.68 -11 14 C-5.7543203 10.78490599 -2.12864158 7.79633988 -0.3125 1.6875 C-0.209375 1.130625 -0.10625 0.57375 0 0 Z " fill="#090909" transform="translate(147,132)"/>
<path d="M0 0 C0.66 1.32 1.32 2.64 2 4 C5.18568297 9.44071698 8.33805496 12.22453675 14 15 C14 15.33 14 15.66 14 16 C9.38 16 4.76 16 0 16 C0 10.72 0 5.44 0 0 Z " fill="#060606" transform="translate(0,132)"/>
<path d="M0 0 C5.28 0 10.56 0 16 0 C16 4.62 16 9.24 16 14 C14.68 12.35 13.36 10.7 12 9 C8.27842801 4.77551288 5.17278715 2.92711678 0 1 C0 0.67 0 0.34 0 0 Z " fill="#060606" transform="translate(132,0)"/>
<path d="M0 0 C4.62 0 9.24 0 14 0 C12.35 1.32 10.7 2.64 9 4 C5.64468626 7.1916399 2.91793739 10.35257826 0 14 C0 9.38 0 4.76 0 0 Z " fill="#040404" transform="translate(0,0)"/>
</svg>
